<svg preserveAspectRatio="none" overflow="visible" style="display: block;" width="20" height="20" viewBox="0 0 20 20" fill="none" xmlns="http://www.w3.org/2000/svg">
<g id="ic heart">
<path id="Vector" d="M17.5 7.08333C17.5 6.08877 17.1046 5.13523 16.4014 4.43197C15.6981 3.7287 14.7446 3.33333 13.75 3.33333C13.1002 3.33333 12.5943 3.42499 12.1265 3.62874C11.6533 3.83484 11.1667 4.17839 10.5892 4.75586C10.2638 5.0813 9.73624 5.0813 9.41081 4.75586C8.83334 4.17839 8.3467 3.83484 7.87354 3.62874C7.40573 3.42499 6.89985 3.33333 6.25 3.33333C5.25544 3.33333 4.30189 3.7287 3.59863 4.43197C2.89537 5.13523 2.5 6.08877 2.5 7.08333C2.5 8.42999 3.26626 9.54854 4.29199 10.6136L10 16.3216L15.2498 11.0718C16.4933 9.85331 17.5 8.61329 17.5 7.08333ZM19.1667 7.08333C19.1667 9.36633 17.6604 11.0406 16.4217 12.255L16.4225 12.2559L10.5892 18.0892C10.2638 18.4146 9.73624 18.4146 9.41081 18.0892L3.58724 12.2656C2.33255 11.0527 0.833333 9.37748 0.833333 7.08333C0.833333 5.64674 1.40361 4.26859 2.41943 3.25277C3.43526 2.23694 4.81341 1.66667 6.25 1.66667C7.06682 1.66667 7.8112 1.78334 8.53923 2.10042C9.05025 2.32301 9.52648 2.63435 10 3.03467C10.4735 2.63435 10.9498 2.32301 11.4608 2.10042C12.1888 1.78334 12.9332 1.66667 13.75 1.66667C15.1866 1.66667 16.5647 2.23695 17.5806 3.25277C18.5964 4.26859 19.1667 5.64674 19.1667 7.08333Z" fill="#1A1A1A" fill-opacity="0.87"/>
</g>
</svg>
